-
 
http://www.Speed. Cd       the fast  and The Hottest Private Tracker on the net 
http://www.Speed. Cd

Please Seed back to make the speed Faster!!
 ............ NFO .............
-
 
http://www.Speed. Cd                                             
                               
                                 
                                      
                                      
                                       
    CoaX!&lt;CPH&gt;                         
                               
                         
                            
          
    Team FiCO &lt;Final Coalition&gt; 2k8 Presents:    
    

Step.Up.To.The.Plate.2012.FESTiVAL.DVDRip.XviD-FiCO 
http://www.imdb.com/title/tt2141717
Subtitles: EN
Date: 2013.04

Director: Paul Lacoste
Genre: Documentary | Family 
Plot: A documentary on French chef Michel Bras and his decision to hand 
over his restaurant to his son, Sebastien, who has been working with him 
for 15 years.

Credited cast:
	 Michel Bras	 ...	
Himself
	 Sbastian Bras	 ...	
Himself

Stats:
General
Format                           : AVI
Format/Info                      : Audio Video Interleave
File size                        : 700 MiB
Duration                         : 1h 30mn
Overall bit rate                 : 1 086 Kbps
Writing application              : VirtualDubMod 1.5.10.2 (build 2542/release)
Writing library                  : VirtualDubMod build 2542/release

Video
ID                               : 0
Format                           : MPEG-4 Visual
Format profile                   : Advanced Simple@L5
Format settings, BVOP            : Yes
Format settings, QPel            : No
Format settings, GMC             : No warppoints
Format settings, Matrix          : Default (H.263)
Codec ID                         : XVID
Codec ID/Hint                    : XviD
Duration                         : 1h 30mn
Bit rate                         : 942 Kbps
Width                            : 640 pixels
Height                           : 352 pixels
Display aspect ratio             : 16:9
Frame rate                       : 23.976 fps
Resolution                       : 8 bits
Colorimetry                      : 4:2:0
Scan type                        : Progressive
Bits/(Pixel*Frame)               : 0.174
Stream size                      : 608 MiB (87%)
Writing library                  : XviD 61

Audio
ID                               : 1
Format                           : MPEG Audio
Format version                   : Version 1
Format profile                   : Layer 3
Mode                             : Joint stereo
Codec ID                         : 55
Codec ID/Hint                    : MP3
Duration                         : 1h 30mn
Bit rate mode                    : Variable
Bit rate                         : 128 Kbps
Channel(s)                       : 2 channels
Sampling rate                    : 48.0 KHz
Stream size                      : 84.5 MiB (12%)
Alignment                        : Aligned on interleaves
Interleave, duration             : 24 ms (0.58 video frame)
Interleave, preload duration     : 140 ms
Writing library                  : LAME3.90.
Encoding settings                : -m j -V 4 -q 2 -lowpass 17.6 --abr 128




Release notes:
enjoy!


                                                                     
                                                             
                                                               
                                                               
                       
      
              Greetz from Team FiCO:               
              
                                                             
                                                             
           BLooDWeiSeR,CULTXviD,SiCK,DoNE,LAP,TH30R1STS              
                                                                             
               WinBeta, DvF, WASTE, BERC, KALEVALA, Jiggly                   
                                                                             
                                                             
                                       
                             
                      
                  
           
            
                    
                  
                
                            
                                        
                                        
                                            
                                                    
                                                              
                      you know where to find us...                     
                        
   NFO By: CoaXCable/CoolPHat &lt;#CPH&gt;